HIERARCHY
ROOT pelvis
{
  OFFSET 0 100 0
  CHANNELS 6 Xposition Yposition Zposition Zrotation Xrotation Yrotation
  JOINT pelvis_right_femur
  {
    OFFSET -10.78128 -3.44521 -0.5502486
    CHANNELS 3 Zrotation Xrotation Yrotation
    JOINT right_femur_tibia
    {
      OFFSET -0.8047443 -44.0398 -0.1307829
      CHANNELS 3 Zrotation Xrotation Yrotation
      JOINT right_tibia_foot
      {
        OFFSET 3.006224 -47.83518 -5
        CHANNELS 3 Zrotation Xrotation Yrotation
        End Site
        {
          OFFSET 0 -5 15
        }
      }
    }
  }
  JOINT pelvis_left_femur
  {
    OFFSET 10.78128 -3.44521 -0.5502486
    CHANNELS 3 Zrotation Xrotation Yrotation
    JOINT left_femur_tibia
    {
      OFFSET 0.8047443 -44.0398 -0.1307829
      CHANNELS 3 Zrotation Xrotation Yrotation
      JOINT left_tibia_foot
      {
        OFFSET -4.370144 -48.10324 -4.275266
        CHANNELS 3 Zrotation Xrotation Yrotation
        End Site
        {
          OFFSET 0 -5 15
        }
      }
    }
  }
  JOINT pelvis_spine1
  {
    OFFSET 0 6.468898 -3.129235
    CHANNELS 3 Zrotation Xrotation Yrotation
    JOINT spine1
    {
      OFFSET 0 23.15396 4.99043
      CHANNELS 3 Zrotation Xrotation Yrotation
      JOINT spine2
      {
        OFFSET 0 20.79997 -5.064912
        CHANNELS 3 Zrotation Xrotation Yrotation
        JOINT neck
        {
          OFFSET 0 14.38658 9.616178
          CHANNELS 3 Zrotation Xrotation Yrotation
          End Site
          {
            OFFSET 0 20 0
          }
        }
      }
      JOINT right_manubrium
      {
        OFFSET -5.722621 16.35077 3.967754
        CHANNELS 3 Zrotation Xrotation Yrotation
        JOINT right_clavicle
        {
          OFFSET -13.16364 1.694482 -4.693211
          CHANNELS 3 Zrotation Xrotation Yrotation
          JOINT right_humerus
          {
            OFFSET -28.5034 -0.3100689 -2.792744
            CHANNELS 3 Zrotation Xrotation Yrotation
            JOINT right_radius
            {
              OFFSET -25.15693 0.02248979 -1.271978
              CHANNELS 3 Zrotation Xrotation Yrotation
              End Site
              {
                OFFSET -15 0 0
              }
            }
          }
        }
      }
      JOINT left_manubrium
      {
        OFFSET 5.722621 16.35077 3.967754
        CHANNELS 3 Zrotation Xrotation Yrotation
        JOINT left_clavicle
        {
          OFFSET 13.16364 1.694482 -4.693211
          CHANNELS 3 Zrotation Xrotation Yrotation
          JOINT left_humerus
          {
            OFFSET 29.39168 -1.063119 -2.237045
            CHANNELS 3 Zrotation Xrotation Yrotation
            JOINT left_radius
            {
              OFFSET 24.59957 -0.9528479 0.9047498
              CHANNELS 3 Zrotation Xrotation Yrotation
              End Site
              {
                OFFSET 15 -0 -0
              }
            }
          }
        }
      }
    }
  }
}
MOTION
Frames: 17
Frame Time: 0.0416666666667
0 103.5113 0 2.868612 0.3248417 0.08712264 2.566282 -15.05949 9.495592 -0 37.91566 -0 -3.439466 -19.32826 -2.149615 -9.763638 9.742217 -23.27746 -0 4.973168 -0 20.96609 -9.38337 29.93746 -2.220972 -1.985739 4.282976 2.735593 9.926016 -7.191296 1.961193 21.33301 6.514652 2.848384 -25.91779 10.21849 5.298821 -18.46279 11.30264 87.06229 37.35196 -18.52532 -0 0 13.45062 -6.927251 8.704596 4.47505 5.707454 -19.65125 -1.666587 -90.8494 21.33898 18.61812 0 0 -16.90845 13.8208 13.76691 -2.386654
0.3922528 103.5679 1.569114 2.372141 1.024775 0.1052186 3.561503 -17.192 10.10815 -0 36.7824 -0 -3.51484 -18.47536 -2.124987 -9.512823 9.641296 -23.15947 -0 5.255515 -0 20.75464 -10.18229 30.22852 -2.313505 -1.970684 4.183703 2.906914 9.917891 -7.301511 1.911929 21.27105 6.664799 2.79965 -26.18627 10.4144 5.225275 -18.49327 11.37791 87.32608 37.80186 -18.77154 -0 0 13.15864 -6.479475 8.559195 4.475852 5.614993 -19.65106 -1.750084 -90.30204 21.24192 18.1242 0 0 -18.25838 14.1956 13.20476 -2.795281
0.7768498 103.0617 3.89563 0.3402314 2.046083 0.03604848 5.350462 -26.98306 7.199074 -0 26.65105 -0 -5.571787 -10.47598 -1.267465 -7.390211 11.22845 -20.60111 -0 6.070448 -0 13.31747 -17.12589 25.8538 -2.298145 -1.995535 4.147205 3.036893 9.901622 -7.384589 1.894423 21.23567 6.661828 2.727108 -26.36525 10.46147 5.248999 -18.45097 11.41361 87.37497 37.77937 -18.98407 -0 0 13.02403 -6.216838 8.511702 4.480875 5.515701 -19.61774 -1.754547 -90.27688 21.46153 18.14245 0 0 -18.55438 14.04055 13.07803 -2.539046
1.123643 102.4249 6.410157 -0.2296221 3.034769 -0.01815344 6.55312 -30.44496 8.032973 -0 23.9994 -0 -5.337075 -9.071178 -1.512447 -6.98113 11.52594 -20.10198 -0 6.362282 -0 12.03753 -18.869 25.29514 -2.290584 -1.970826 4.116022 3.073682 9.90249 -7.400768 1.873384 21.23217 6.692223 2.71385 -26.39504 10.4804 5.250335 -18.41336 11.43869 87.40712 37.82516 -19.04448 -0 0 12.88956 -6.192878 8.50681 4.553501 5.474556 -19.60245 -1.779936 -90.16341 21.48849 18.04768 0 0 -18.78943 14.01914 12.91754 -2.490592
1.44317 101.688 9.313217 -0.5917654 4.051664 0.08848143 7.844693 -34.00435 8.457494 -0 20.42824 -0 -5.372504 -6.994561 -1.113767 -6.863675 12.05516 -19.55063 -0 7.066934 -0 12.20085 -19.89551 25.19551 -2.302694 -1.989523 4.071864 3.210418 9.890733 -7.490023 1.838906 21.18765 6.734539 2.654109 -26.58714 10.55608 5.246333 -18.4034 11.48531 87.50562 37.91022 -19.26234 -0 0 12.72718 -5.912593 8.435624 4.569438 5.38217 -19.59127 -1.809724 -90.01561 21.61691 17.96213 0 0 -19.34408 13.98978 12.66652 -2.393053
1.708355 100.9166 12.72971 -0.9734509 4.583456 0.4967756 8.716766 -36.09485 8.178177 -0 17.4419 -0 -5.890854 -5.054972 -0.7753862 -6.535008 13.01371 -19.01308 -0 8.483845 -0 10.6086 -21.09068 24.17735 -2.290733 -1.958519 4.033931 3.259731 9.894349 -7.514183 1.805575 21.18012 6.777835 2.639196 -26.62356 10.5753 5.247797 -18.35823 11.52015 87.54943 37.95894 -19.35168 -0 0 12.54842 -5.894096 8.430796 4.671075 5.329571 -19.57976 -1.847278 -89.86979 21.65104 17.85018 0 0 -19.65544 13.95086 12.44237 -2.314026
1.917519 100.2766 16.73318 -1.461081 4.748448 1.257319 9.096173 -36.19714 7.235497 -0 15.84171 -0 -6.783873 -3.775171 -0.5812469 -5.972892 13.99411 -18.34887 -0 10.96782 -0 7.372266 -21.78686 21.95817 -2.240346 -1.867858 3.994929 3.224876 9.91458 -7.473677 1.773615 21.21395 6.813147 2.663512 -26.49375 10.52607 5.265378 -18.24939 11.54664 87.53018 37.93556 -19.3271 -0 0 12.31722 -6.155861 8.503812 4.879444 5.305374 -19.55742 -1.89445 -89.73342 21.62457 17.71352 0 0 -19.68724 13.8455 12.24335 -2.178338
2.077702 99.79373 21.42084 -1.892477 4.580085 2.227868 8.667186 -34.90033 5.696789 -0 14.54156 -0 -7.284646 -2.83472 -0.9874695 -5.19389 14.9654 -16.93844 -0 14.47143 -0 2.455867 -21.70866 18.01215 -2.17115 -1.748236 3.963783 3.127832 9.942906 -7.387941 1.753313 21.27623 6.829258 2.713008 -26.25072 10.42987 5.29228 -18.10999 11.55914 87.45952 37.85146 -19.20821 -0 0 12.09921 -6.586461 8.62246 5.124732 5.310094 -19.52833 -1.938109 -89.63864 21.55654 17.58472 0 0 -19.47164 13.70514 12.12168 -2.024238
2.185536 99.41702 26.92003 -2.050503 3.902687 3.136276 7.64345 -32.63365 4.278505 -0 13.1874 -0 -6.764139 -1.882486 -2.271387 -4.334621 15.96431 -14.59696 -0 19.37335 -0 -3.026194 -20.15724 13.23669 -2.102966 -1.636893 3.940418 3.026292 9.969026 -7.29997 1.742685 21.34068 6.82758 2.759437 -26.00174 10.3257 5.321437 -17.97457 11.56477 87.37228 37.73724 -19.07257 -0 0 11.92131 -7.010636 8.739001 5.347324 5.31836 -19.49569 -1.97287 -89.58735 21.50081 17.49015 0 0 -19.17119 13.54572 12.0588 -1.853409
2.253611 99.27808 33.23458 -2.120371 2.709678 3.684731 7.059696 -29.4103 4.073051 -0 13.3176 -0 -5.629222 -1.229689 -3.911963 -3.462603 16.27211 -11.96762 -0 26.82877 -0 -6.958628 -16.29736 9.767542 -2.048526 -1.55338 3.925537 2.947522 9.988577 -7.231464 1.73867 21.39194 6.815535 2.791949 -25.80533 10.23832 5.346416 -17.86788 11.56697 87.29376 37.62696 -18.96055 -0 0 11.79863 -7.338564 8.828937 5.514394 5.321938 -19.46626 -1.996383 -89.56983 21.47058 17.43574 0 0 -18.89292 13.39846 12.03494 -1.694621
2.301122 99.60049 40.0718 -2.262434 1.166899 3.620031 7.398476 -25.60868 4.983539 -0 15.35277 -0 -5.057001 -1.328135 -4.894809 -2.726225 14.91533 -9.918265 -0 36.89063 -0 -7.88422 -10.81995 8.954343 -2.010001 -1.505892 3.923063 2.893464 9.999984 -7.18489 1.743528 21.42681 6.790434 2.809036 -25.67673 10.17242 5.366992 -17.80009 11.56302 87.22396 37.5253 -18.87302 -0 0 11.75304 -7.550837 8.888677 5.610015 5.322095 -19.44094 -2.002625 -89.60304 21.46976 17.44057 0 0 -18.62211 13.27154 12.0689 -1.557398
2.302347 100.4128 46.9147 -2.19635 -0.8637911 2.992869 7.88122 -21.00824 5.561061 -0 17.61746 -0 -5.66987 -2.843726 -5.037437 -2.409419 11.77329 -8.862452 -0 47.39825 -0 -6.942755 -6.400871 10.27435 -1.987017 -1.504231 3.947 2.844043 10.00057 -7.146827 1.769133 21.4507 6.73473 2.81552 -25.60339 10.11918 5.386234 -17.78379 11.53972 87.13589 37.41183 -18.76672 -0 0 11.84977 -7.66554 8.924912 5.609259 5.333238 -19.41736 -1.974474 -89.75128 21.49641 17.55859 0 0 -18.21444 13.16378 12.24715 -1.450729
2.263078 101.6018 53.39268 -1.666354 -3.271021 2.143365 7.682417 -14.70785 5.454905 -0 18.34795 -0 -6.088664 -5.330323 -5.077324 -2.471469 6.878459 -8.271001 -0 56.1979 -0 -6.598925 -4.800863 12.23774 -1.964606 -1.53386 4.021137 2.727671 9.993792 -7.065439 1.828201 21.49147 6.624403 2.839955 -25.47133 10.0283 5.413121 -17.81132 11.47481 86.95765 37.21701 -18.51986 -0 0 12.15614 -7.858707 8.982431 5.538017 5.395573 -19.3964 -1.896327 -90.10211 21.51297 17.85199 0 0 -17.35817 13.03704 12.68981 -1.354923
2.291014 103.0489 59.39004 -0.8158119 -4.596018 1.332545 6.834306 -7.999786 5.25119 -0 16.37176 -0 -5.558574 -6.795719 -4.529829 -2.611449 -0.5094614 -7.468588 -0 62.17169 -0 -6.935181 -4.850504 13.18548 -1.913711 -1.547752 4.177304 2.437535 9.995333 -6.859803 1.90341 21.5907 6.464607 2.938129 -25.06567 9.807893 5.453541 -17.86309 11.35526 86.58811 36.84765 -17.96034 -0 0 12.68061 -8.498432 9.139433 5.541441 5.560101 -19.3999 -1.779459 -90.69408 21.43224 18.36548 0 0 -15.749 12.80281 13.40445 -1.19167
2.398725 104.2891 65.01619 0.2060977 -5.108246 0.621588 5.465258 -2.384859 4.606115 -0 13.36346 -0 -4.815163 -7.62031 -3.339013 -2.495523 -8.638065 -6.622085 -0 62.76912 -0 -6.858837 -5.338189 13.66231 -1.83314 -1.515507 4.426688 1.968262 10.01395 -6.506495 1.931489 21.75656 6.320431 3.128395 -24.30477 9.426228 5.48603 -17.95316 11.21215 85.98616 36.32432 -17.02076 -0 0 13.3373 -9.78426 9.399817 5.828177 5.797523 -19.44384 -1.673408 -91.41112 21.20508 19.08139 0 0 -13.58779 12.38688 14.11846 -0.8649758
2.509747 104.8075 70.45368 0.8512947 -6.039547 -0.02897153 4.468832 2.905598 3.875801 -0 11.56085 -0 -4.386742 -9.577585 -2.480676 -1.584444 -15.1734 -5.808877 -0 56.53889 -0 -6.26426 -5.819202 15.39478 -1.782083 -1.511295 4.741468 1.491996 10.02804 -6.127294 1.880658 21.91858 6.245943 3.336754 -23.47707 9.011438 5.471073 -18.15936 11.08981 85.29468 35.81836 -15.94389 -0 0 14.08141 -11.2598 9.622609 6.307632 6.019175 -19.52891 -1.599174 -92.10925 20.9254 19.95052 0 0 -11.5871 11.9015 14.59834 -0.4545017
2.635537 104.5599 75.80803 0.8168219 -6.622252 -0.6879944 4.373278 7.661941 3.5352 -0 10.25137 -0 -4.25456 -12.26886 -2.068326 0.04165942 -20.01996 -4.710682 -0 46.14341 -0 -5.509785 -6.085744 17.37027 -1.795298 -1.636672 5.100446 1.140999 10.03113 -5.867179 1.762845 21.99416 6.246605 3.512202 -22.87995 8.682279 5.39862 -18.54895 10.99232 84.73297 35.43135 -15.11002 -0 0 14.93622 -12.39742 9.713266 6.666534 6.228252 -19.71451 -1.538873 -92.80026 20.6877 20.99646 0 0 -10.15877 11.54171 14.90095 -0.1344803
